<?xml version="1.0" encoding="iso-8859-1"?>
<!-- Generator: Adobe Illustrator 19.0.0, SVG Export Plug-In . SVG Version: 6.00 Build 0)  -->
<svg version="1.1" id="Layer_1" xmlns="http://www.w3.org/2000/svg" xmlns:xlink="http://www.w3.org/1999/xlink" x="0px" y="0px"
	 viewBox="0 0 512 512" style="enable-background:new 0 0 512 512;" xml:space="preserve">
<path style="fill:#5286FA;" d="M493.893,310.354c3.64-16.649,5.577-33.93,5.577-51.666c0-132.978-107.803-240.783-240.787-240.783
	c-14.041,0-27.793,1.213-41.177,3.523C195.986,7.869,170.526,0,143.216,0C66.097,0,3.58,62.524,3.58,139.633
	c0,25.777,7.013,49.903,19.193,70.63c-3.193,15.643-4.873,31.834-4.873,48.423c0,132.978,107.803,240.783,240.783,240.783
	c15.063,0,29.797-1.394,44.09-4.04c19.657,10.564,42.134,16.57,66.01,16.57c77.123,0,139.636-62.517,139.636-139.633
	C508.419,350.083,503.176,329.04,493.893,310.354z M382.176,373.757c-11.139,15.763-27.597,28.254-48.92,37.118
	c-21.117,8.777-46.43,13.228-75.244,13.228c-34.584,0-63.58-6.083-86.211-18.087c-16.177-8.74-29.517-20.576-39.644-35.18
	c-10.23-14.754-15.416-29.394-15.416-43.51c0-8.823,3.381-16.473,10.044-22.733c6.596-6.205,15.049-9.349,25.131-9.349
	c8.274,0,15.41,2.485,21.21,7.386c5.543,4.697,10.3,11.646,14.119,20.622c4.267,9.772,8.921,18.024,13.833,24.523
	c4.721,6.252,11.517,11.506,20.193,15.607c8.73,4.134,20.497,6.228,34.97,6.228c19.907,0,36.227-4.25,48.503-12.633
	c11.989-8.187,17.819-18.014,17.819-30.044c0-9.506-3.043-16.976-9.3-22.839c-6.554-6.129-15.196-10.899-25.694-14.17
	c-10.943-3.412-25.8-7.091-44.177-10.938c-24.893-5.332-46.053-11.657-62.906-18.806c-0.067-0.026-0.133-0.053-0.196-0.082
	c-17.266-7.344-31.183-17.527-41.363-30.269c-10.341-12.94-15.58-29.174-15.58-48.256c0-18.19,5.501-34.586,16.35-48.729
	c10.767-14.044,26.493-24.958,46.737-32.447c19.983-7.39,43.754-11.134,70.651-11.134c21.504,0,40.41,2.483,56.19,7.39
	c15.87,4.943,29.251,11.617,39.764,19.83c10.59,8.274,18.466,17.126,23.414,26.32c4.997,9.286,7.53,18.528,7.53,27.467
	c0,8.603-3.323,16.422-9.876,23.236c-6.593,6.854-14.913,10.334-24.73,10.334c-8.917,0-15.896-2.176-20.739-6.467
	c-4.507-3.983-9.18-10.194-14.37-19.13c-6.004-11.407-13.269-20.4-21.606-26.737c-8.09-6.154-21.617-9.279-40.201-9.279
	c-17.26,0-31.297,3.465-41.719,10.298c-10.044,6.584-14.923,14.135-14.923,23.079c0,5.487,1.57,10.071,4.801,14.017
	c3.424,4.18,8.25,7.851,14.35,10.902c6.33,3.181,12.85,5.709,19.383,7.513c6.69,1.857,17.92,4.608,33.316,8.165
	c16.224,3.483,31.333,7.32,45.087,11.426c2.763,0.824,5.494,1.659,8.142,2.505c16.034,5.132,29.891,11.462,41.19,18.811
	c11.534,7.511,20.666,17.157,27.146,28.672c6.497,11.556,9.789,25.825,9.789,42.4C399.023,339.857,393.352,357.934,382.176,373.757z
	"/>
<g>
</g>
<g>
</g>
<g>
</g>
<g>
</g>
<g>
</g>
<g>
</g>
<g>
</g>
<g>
</g>
<g>
</g>
<g>
</g>
<g>
</g>
<g>
</g>
<g>
</g>
<g>
</g>
<g>
</g>
</svg>
